<!-- Copyright (c) Files Community. Licensed under the MIT License.
     Source: https://github.com/files-community/Files/blob/main/src/Files.App.Controls/ThemedIcon/Styles/Icons.New.xaml (App.ThemedIcons.New.Item, Layers).
     Palette adapted for Pulse; contrast backing omitted for transparent interiors. -->
<svg xmlns="http://www.w3.org/2000/svg" viewBox="0 0 16 16"><path fill="#FFFFFF" opacity="1" d="m8,15c-3.87,0-7-3.13-7-7S4.13,1,8,1s7,3.13,7,7-3.13,7-7,7Zm0,1c4.42,0,8-3.58,8-8S12.42,0,8,0,0,3.58,0,8s3.58,8,8,8Z"/><path fill="#8CCBFF" opacity="1" d="m4,8c0-.28.22-.5.5-.5h3v-3c0-.28.22-.5.5-.5s.5.22.5.5v3h3c.28,0,.5.22.5.5s-.22.5-.5.5h-3v3c0,.28-.22.5-.5.5s-.5-.22-.5-.5v-3h-3c-.28,0-.5-.22-.5-.5Z"/></svg>
